<?xml version="1.0" encoding="UTF-8"?>
<!-- Generator: Adobe Illustrator 24.0.0, SVG Export Plug-In . SVG Version: 6.00 Build 0)  -->
<svg version="1.1" id="Layer_1" xmlns="http://www.w3.org/2000/svg" xmlns:xlink="http://www.w3.org/1999/xlink" x="0px" y="0px" viewBox="0 0 180 62.6" style="enable-background:new 0 0 180 62.6;" xml:space="preserve">
<style type="text/css">
	.st0{fill:#FFFFFF;}
	.st1{fill:#29AAE1;}
	.st2{fill-rule:evenodd;clip-rule:evenodd;fill:#FFFFFF;}
</style>
<g>
	<path class="st0" d="M28.6,5.8l0,30.4c0,2.3,1.2,3.5,3.6,3.5l3.1,0L35.4,2.3l-3.1,0C29.8,2.3,28.6,3.5,28.6,5.8L28.6,5.8z"/>
	<path class="st0" d="M6.8,19.6c0,0.7,0.2,1.3,0.5,1.9c0.4,0.6,0.8,1.1,1.4,1.5c0.6,0.4,1.3,0.8,2.1,1c0.8,0.2,1.6,0.4,2.4,0.4   c0.8,0,1.7-0.1,2.4-0.4c0.8-0.2,1.5-0.6,2.1-1c0.6-0.4,1.1-0.9,1.4-1.5c0.4-0.6,0.5-1.2,0.5-1.9l0-6.1c0-0.7-0.2-1.3-0.5-1.9   c-0.4-0.6-0.8-1.1-1.4-1.5c-0.6-0.4-1.3-0.8-2.1-1c-0.8-0.2-1.6-0.4-2.4-0.4c-0.8,0-1.7,0.1-2.4,0.4c-0.8,0.2-1.5,0.6-2.1,1   c-0.6,0.4-1.1,0.9-1.4,1.5c-0.4,0.6-0.5,1.2-0.5,1.9L6.8,19.6L6.8,19.6z M0,13.6C0,12,0.4,10.4,1.1,9c0.7-1.4,1.7-2.7,3-3.8   c1.3-1,2.7-1.8,4.2-2.3C9.9,2.3,11.5,2,13.2,2c1.8,0,3.5,0.3,5.1,0.9c1.6,0.6,3,1.4,4.2,2.5c1.2,1,2.2,2.3,2.9,3.7   c0.7,1.4,1.1,2.9,1.1,4.5l0,6.1c0,3.3-1.4,6.1-4.1,8.3c-1.3,1.1-2.7,1.9-4.2,2.4c-1.5,0.5-3.2,0.8-4.9,0.8c-1.2,0-2.4-0.1-3.4-0.3   c-1-0.2-2.1-0.6-3.1-1.1l0,6.5c0,2.3-1.2,3.5-3.6,3.5l-3.1,0L0,13.6L0,13.6z"/>
	<path class="st0" d="M73.1,39.6L62.8,11l5.1,0c2,0,3.7,1.2,4.3,3.2l5,15.8l6-18.9l8,0l-9.2,25.7c-0.7,1.8-2.3,3-4.3,3L73.1,39.6   L73.1,39.6z"/>
	<path class="st1" d="M127.8,20.3c0-1.5,0.2-2.9,0.7-4.1c0.5-1.2,1.1-2.3,2-3.1c0.8-0.9,1.9-1.5,3-2c1.2-0.5,2.5-0.7,3.9-0.7l5.4,0   c1.4,0,2.7,0.2,3.9,0.7c1.2,0.5,2.2,1.1,3,2c0.8,0.9,1.5,1.9,2,3.1c0.5,1.2,0.7,2.6,0.7,4.1l0,5.1c0,2.3-1.2,3.5-3.6,3.5l-14.4,0   l0,0.8c0,1,0.3,1.8,0.8,2.3c0.5,0.6,1.2,0.9,2.1,0.9l8.1,0c2.3,0,3.5,1.2,3.5,3.6l0,3.1l-11.5,0c-1.4,0-2.7-0.2-3.9-0.7   c-1.2-0.5-2.2-1.1-3-2c-0.8-0.9-1.5-1.9-2-3.1c-0.5-1.2-0.7-2.6-0.7-4.1C127.8,26.5,127.8,23.4,127.8,20.3L127.8,20.3z M145.8,22.1   l0-1.8c0-1-0.3-1.8-0.8-2.3c-0.5-0.6-1.2-0.9-2.1-0.9l-4.1,0c-0.1,0-0.2,0-0.3,0c-0.1,0-0.2,0-0.3,0l-0.7,0c-0.9,0-1.6,0.3-2.1,0.9   c-0.5,0.6-0.8,1.4-0.8,2.3l0,1.8L145.8,22.1L145.8,22.1z"/>
	<path class="st1" d="M161.7,39.5l-10.3-28.6l5.1,0c2,0,3.7,1.2,4.3,3.2l5,15.8l6-18.9l8,0l-9.2,25.7c-0.7,1.8-2.3,3-4.3,3   L161.7,39.5L161.7,39.5z"/>
	<path class="st0" d="M55.6,18.8c-1.3-1.1-2.9-1.6-4.8-1.6c-0.8,0-1.6,0.1-2.4,0.4c-0.8,0.2-1.5,0.6-2.1,1c-0.6,0.4-1.1,0.9-1.4,1.5   c-0.4,0.6-0.5,1.2-0.5,1.9l0,6.1c0,0.7,0.2,1.3,0.5,1.9c0.4,0.6,0.8,1.1,1.4,1.5c0.6,0.4,1.3,0.8,2.1,1c0.8,0.2,1.6,0.4,2.4,0.4   c0.8,0,1.7-0.1,2.4-0.4c0.8-0.2,1.5-0.6,2.1-1c0.6-0.4,1.1-0.9,1.4-1.5c0.4-0.6,0.5-1.2,0.5-1.9l0-6.1   C57.3,20.8,56.7,19.8,55.6,18.8L55.6,18.8z M50.8,10.5c1.7,0,3.4,0.3,4.9,0.8c1.5,0.5,2.9,1.3,4.2,2.4C62.7,16,64,18.7,64,22l0,6.1   c0,1.6-0.4,3.1-1.1,4.6c-0.7,1.4-1.7,2.7-3,3.8c-1.3,1-2.7,1.8-4.2,2.3c-1.5,0.6-3.2,0.8-4.9,0.8c-1.8,0-3.5-0.3-5.1-0.9   c-1.6-0.6-3-1.4-4.2-2.5c-1.2-1-2.2-2.3-2.9-3.7c-0.7-1.4-1.1-2.9-1.1-4.5l0-6.1c0-3.3,1.4-6.1,4.1-8.3c1.3-1.1,2.7-1.9,4.2-2.4   C47.4,10.8,49.1,10.5,50.8,10.5L50.8,10.5z"/>
	<path class="st1" d="M118.9,22c0-0.7-0.2-1.3-0.5-1.9c-0.4-0.6-0.8-1.1-1.4-1.5c-0.6-0.4-1.3-0.8-2.1-1c-0.8-0.2-1.6-0.4-2.4-0.4   c-0.8,0-1.6,0.1-2.4,0.4c-0.4,0.1-0.8,0.3-1.2,0.5l-3.1-6c0.6-0.3,1.2-0.6,1.8-0.8c1.5-0.5,3.1-0.8,4.9-0.8c1.2,0,2.3,0.1,3.4,0.3   c1,0.2,2.1,0.6,3.1,1.1l0-6.5c0-2.3,1.2-3.5,3.6-3.5l3.1,0l0,26.1c0,1.6-0.4,3.1-1.1,4.5c-0.7,1.4-1.7,2.7-3,3.8   c-1.3,1-2.7,1.8-4.2,2.3c-1.4,0.5-2.9,0.8-4.4,0.8l-0.3-6.7c0.8,0,1.5-0.1,2.3-0.4c0.8-0.2,1.5-0.6,2.1-1c0.6-0.4,1.1-0.9,1.4-1.5   c0.4-0.6,0.5-1.2,0.5-1.9L118.9,22L118.9,22z M108.2,18.5c-0.1,0.1-0.2,0.1-0.2,0.2c-0.6,0.4-1.1,0.9-1.4,1.5   c-0.1,0.2-0.3,0.5-0.3,0.7l-5.7-3.7c0.7-1.2,1.6-2.4,2.9-3.4c0.4-0.3,0.8-0.6,1.2-0.9L108.2,18.5L108.2,18.5z M106,21.6   c0,0.2,0,0.3,0,0.5l0,2.4l-6.7-0.4l0-2.1c0-1.3,0.2-2.5,0.6-3.6L106,21.6L106,21.6z M106,25.1l0,2.9l-6.2,3.2c-0.3-1-0.5-2-0.5-3   l0-2.7L106,25.1L106,25.1z M106.1,28.8c0.1,0.4,0.2,0.8,0.5,1.2c0.3,0.6,0.8,1,1.4,1.5l-3.6,5.6c-0.4-0.3-0.7-0.5-1-0.8   c-1.2-1-2.2-2.3-2.9-3.7c0,0,0-0.1-0.1-0.1L106.1,28.8L106.1,28.8z M108.6,31.9c0.4,0.2,0.9,0.5,1.5,0.6c0.6,0.2,1.2,0.3,1.8,0.3   l-0.4,6.7c-1.4-0.1-2.7-0.4-4-0.9c-0.7-0.3-1.3-0.5-1.9-0.9L108.6,31.9L108.6,31.9z"/>
	<path class="st2" d="M108.8,29.3c0.1,0.1,0.3,0.2,0.4,0.3c0.4,0.3,1,0.5,1.5,0.7c0.6,0.2,1.2,0.3,1.8,0.3c0.6,0,1.2-0.1,1.8-0.3   c0.5-0.2,1-0.4,1.4-0.7c0.3-0.2,0.6-0.5,0.8-0.9c0.1-0.2,0.2-0.5,0.2-0.8l0-6.1c0-0.1,0-0.2,0-0.3c0-0.1-0.1-0.2-0.2-0.4   c-0.2-0.4-0.5-0.6-0.8-0.9c-0.4-0.3-0.9-0.5-1.4-0.7c-0.6-0.2-1.2-0.3-1.8-0.3c-0.6,0-1.2,0.1-1.8,0.3c-0.5,0.2-1,0.4-1.5,0.7   c-0.3,0.2-0.6,0.5-0.8,0.9c-0.1,0.2-0.2,0.5-0.2,0.8l0,6.1c0,0.3,0.1,0.5,0.2,0.8C108.5,29,108.6,29.2,108.8,29.3L108.8,29.3z"/>
	<path class="st0" d="M112.4,1.5c1.8,0,3.6,0.2,5.3,0.6c-0.6,0.9-1,2.1-1,3.5l0,3.2c-1.4-0.4-2.9-0.5-4.3-0.5   c-1.9,0-3.8,0.3-5.6,0.9c-0.7,0.2-1.4,0.5-2.1,0.9l-3.1-6c0.9-0.5,1.9-0.9,2.9-1.3C107.1,1.9,109.8,1.5,112.4,1.5L112.4,1.5z    M103.3,10.9c-0.5,0.3-1,0.7-1.4,1c-1.4,1.2-2.5,2.5-3.4,3.9l-5.7-3.7c1.2-2,2.8-3.9,4.7-5.5c0.7-0.5,1.3-1.1,2.1-1.5L103.3,10.9   L103.3,10.9z M97.9,17.4C97.3,18.8,97,20.3,97,22l0,2l-6.7-0.4l0-1.7c0-2.8,0.5-5.3,1.6-7.7L97.9,17.4L97.9,17.4z M97,25.5l0,2.5   c0,1.4,0.2,2.8,0.7,4.1l-6,3.1c-1-2.3-1.4-4.7-1.4-7.2l0-2.2L97,25.5L97,25.5z M98.4,33.7c0.8,1.6,2,3,3.3,4.2   c0.4,0.4,0.9,0.7,1.4,1l-3.7,5.7c-0.7-0.5-1.4-1-2.1-1.6c-1.8-1.6-3.4-3.5-4.6-5.6L98.4,33.7L98.4,33.7z M104.6,39.8   c0.7,0.4,1.4,0.7,2.1,1c1.5,0.6,3.1,0.9,4.7,1l-0.4,6.7c-2.3-0.1-4.6-0.6-6.8-1.4c-1-0.4-1.9-0.8-2.8-1.3L104.6,39.8L104.6,39.8z    M113.1,41.8c1.7-0.1,3.4-0.4,5-1c1.7-0.6,3.4-1.5,4.8-2.7l0,0l0,0c1.3-1.2,2.5-2.5,3.3-4.1c0.1,0.2,0.1,0.4,0.2,0.6   c0.6,1.4,1.4,2.7,2.5,3.8c0.5,0.5,1,0.9,1.6,1.3c-0.9,1.2-2,2.4-3.1,3.4l-0.2,0.1l-0.2,0.1c-2,1.6-4.3,2.9-6.7,3.7   c-2.3,0.8-4.6,1.3-7,1.4L113.1,41.8L113.1,41.8z"/>
	<path class="st0" d="M142,54.6c0-0.4,0.1-0.7,0.2-1c0.1-0.3,0.3-0.6,0.5-0.8c0.2-0.2,0.5-0.4,0.8-0.5c0.3-0.1,0.6-0.2,1-0.2l1.1,0   l0,0.8c0,0.6-0.3,0.9-0.9,0.9l-0.2,0c-0.2,0-0.4,0.1-0.5,0.2c-0.1,0.1-0.2,0.3-0.2,0.6l0,4.5l-0.8,0c-0.6,0-0.9-0.3-0.9-0.9   L142,54.6L142,54.6z"/>
	<path class="st0" d="M150.6,53.9c-0.3-0.3-0.8-0.4-1.2-0.4c-0.2,0-0.4,0-0.6,0.1c-0.2,0.1-0.4,0.1-0.5,0.3   c-0.2,0.1-0.3,0.2-0.4,0.4c-0.1,0.2-0.1,0.3-0.1,0.5l0,1.6c0,0.2,0,0.3,0.1,0.5c0.1,0.2,0.2,0.3,0.4,0.4c0.2,0.1,0.3,0.2,0.5,0.3   c0.2,0.1,0.4,0.1,0.6,0.1c0.2,0,0.4,0,0.6-0.1c0.2-0.1,0.4-0.1,0.5-0.3c0.2-0.1,0.3-0.2,0.4-0.4c0.1-0.2,0.1-0.3,0.1-0.5l0-1.6   C151,54.4,150.9,54.2,150.6,53.9L150.6,53.9z M149.3,51.8c0.4,0,0.9,0.1,1.3,0.2c0.4,0.1,0.7,0.3,1.1,0.6c0.7,0.6,1.1,1.3,1.1,2.1   l0,1.6c0,0.4-0.1,0.8-0.3,1.2c-0.2,0.4-0.4,0.7-0.8,1c-0.3,0.3-0.7,0.5-1.1,0.6c-0.4,0.1-0.8,0.2-1.3,0.2c-0.5,0-0.9-0.1-1.3-0.2   c-0.4-0.2-0.8-0.4-1.1-0.6c-0.3-0.3-0.6-0.6-0.7-0.9c-0.2-0.4-0.3-0.7-0.3-1.2l0-1.6c0-0.8,0.3-1.6,1.1-2.1   c0.3-0.3,0.7-0.5,1.1-0.6C148.5,51.9,148.9,51.8,149.3,51.8L149.3,51.8z"/>
	<path class="st0" d="M159,59.1c-0.4,0-0.8-0.2-1-0.6l-1.2-2l-0.2,0l-1.6,2.6l-1,0c-0.1,0-0.3,0-0.4-0.1c-0.1-0.1-0.2-0.1-0.2-0.2   c0-0.1,0-0.2,0-0.3c0-0.1,0.1-0.2,0.1-0.3l1.6-2.6l-1.6-2.6c-0.1-0.1-0.1-0.2-0.1-0.3c0-0.1,0-0.2,0-0.3c0-0.1,0.1-0.2,0.2-0.2   c0.1-0.1,0.2-0.1,0.4-0.1l1,0l1.7,2.7l1.3-2.2c0.1-0.2,0.3-0.3,0.4-0.4c0.2-0.1,0.4-0.1,0.6-0.1l1.4,0l-2.1,3.5   c0.2,0.3,0.3,0.6,0.5,0.9c0.2,0.3,0.4,0.6,0.6,0.9c0.2,0.3,0.4,0.6,0.6,0.9c0.2,0.3,0.4,0.6,0.5,0.9L159,59.1L159,59.1z"/>
	<path class="st0" d="M161.4,52.9l0,5.3c0,0.6,0.3,0.9,0.9,0.9l0.8,0l0-7.1l-0.8,0C161.7,52,161.4,52.3,161.4,52.9L161.4,52.9z"/>
	<path class="st0" d="M168.9,53.9c-0.3-0.3-0.8-0.4-1.2-0.4c-0.2,0-0.4,0-0.6,0.1c-0.2,0.1-0.4,0.1-0.5,0.3   c-0.2,0.1-0.3,0.2-0.4,0.4c-0.1,0.2-0.1,0.3-0.1,0.5l0,1.6c0,0.2,0,0.3,0.1,0.5c0.1,0.2,0.2,0.3,0.4,0.4c0.2,0.1,0.3,0.2,0.5,0.3   c0.2,0.1,0.4,0.1,0.6,0.1c0.2,0,0.4,0,0.6-0.1c0.2-0.1,0.4-0.1,0.5-0.3c0.2-0.1,0.3-0.2,0.4-0.4c0.1-0.2,0.1-0.3,0.1-0.5l0-1.6   C169.3,54.4,169.2,54.1,168.9,53.9L168.9,53.9z M167.6,51.8c0.4,0,0.9,0.1,1.3,0.2c0.4,0.1,0.7,0.3,1.1,0.6   c0.7,0.6,1.1,1.3,1.1,2.1l0,4.3l-0.6,0c-0.4,0-0.6-0.1-0.8-0.4c-0.3,0.2-0.6,0.4-0.9,0.5c-0.3,0.1-0.7,0.2-1.1,0.2   c-0.5,0-0.9-0.1-1.3-0.2c-0.4-0.2-0.8-0.4-1.1-0.6c-0.3-0.3-0.6-0.6-0.7-0.9c-0.2-0.4-0.3-0.7-0.3-1.2l0-1.6c0-0.8,0.4-1.6,1.1-2.1   c0.3-0.3,0.7-0.5,1.1-0.6C166.8,51.8,167.2,51.8,167.6,51.8L167.6,51.8z"/>
	<path class="st0" d="M177.1,54.7c0-0.2,0-0.3-0.1-0.5c-0.1-0.1-0.2-0.3-0.4-0.4c-0.2-0.1-0.3-0.2-0.5-0.3c-0.2-0.1-0.4-0.1-0.6-0.1   c-0.2,0-0.4,0-0.6,0.1c-0.2,0.1-0.4,0.1-0.5,0.3c-0.2,0.1-0.3,0.2-0.4,0.4c-0.1,0.2-0.1,0.3-0.1,0.5l0,1.6c0,0.2,0,0.3,0.1,0.5   c0.1,0.2,0.2,0.3,0.4,0.4c0.2,0.1,0.3,0.2,0.5,0.3c0.2,0.1,0.4,0.1,0.6,0.1c0.2,0,0.4,0,0.6-0.1c0.2-0.1,0.4-0.1,0.5-0.3   c0.2-0.1,0.3-0.2,0.4-0.4c0.1-0.2,0.1-0.3,0.1-0.5L177.1,54.7L177.1,54.7z M178.9,56.3c0,0.4-0.1,0.8-0.3,1.2   c-0.2,0.4-0.4,0.7-0.8,1c-0.3,0.3-0.7,0.5-1.1,0.6c-0.4,0.1-0.8,0.2-1.3,0.2c-0.5,0-0.9-0.1-1.3-0.2c-0.4-0.2-0.8-0.4-1.1-0.6   c-0.3-0.3-0.6-0.6-0.7-0.9c-0.2-0.4-0.3-0.7-0.3-1.2l0-1.6c0-0.8,0.4-1.6,1.1-2.1c0.3-0.3,0.7-0.5,1.1-0.6c0.4-0.1,0.8-0.2,1.3-0.2   c0.3,0,0.6,0,0.9,0.1c0.3,0.1,0.5,0.2,0.8,0.3l0-1.7c0-0.6,0.3-0.9,0.9-0.9l0.8,0L178.9,56.3L178.9,56.3z"/>
	<path class="st0" d="M136.3,54.1c0,0.2,0,0.3,0.1,0.5c0.1,0.2,0.2,0.3,0.4,0.4c0.2,0.1,0.3,0.2,0.5,0.3c0.2,0.1,0.4,0.1,0.6,0.1   c0.2,0,0.4,0,0.6-0.1c0.2-0.1,0.4-0.1,0.5-0.3c0.2-0.1,0.3-0.2,0.4-0.4c0.1-0.2,0.1-0.3,0.1-0.5l0-1.6c0-0.2,0-0.3-0.1-0.5   c-0.1-0.2-0.2-0.3-0.4-0.4c-0.2-0.1-0.3-0.2-0.5-0.3c-0.2-0.1-0.4-0.1-0.6-0.1c-0.2,0-0.4,0-0.6,0.1c-0.2,0.1-0.4,0.1-0.5,0.3   c-0.2,0.1-0.3,0.2-0.4,0.4c-0.1,0.1-0.1,0.3-0.1,0.5L136.3,54.1L136.3,54.1z M134.6,52.6c0-0.4,0.1-0.8,0.3-1.2   c0.2-0.4,0.4-0.7,0.8-1c0.3-0.3,0.7-0.5,1.1-0.6c0.4-0.1,0.8-0.2,1.3-0.2c0.5,0,0.9,0.1,1.3,0.2c0.4,0.2,0.8,0.4,1.1,0.6   c0.3,0.3,0.6,0.6,0.7,0.9c0.2,0.4,0.3,0.7,0.3,1.2l0,1.6c0,0.8-0.4,1.6-1.1,2.1c-0.3,0.3-0.7,0.5-1.1,0.6c-0.4,0.1-0.8,0.2-1.3,0.2   c-0.3,0-0.6,0-0.9-0.1c-0.3-0.1-0.5-0.2-0.8-0.3l0,1.7c0,0.6-0.3,0.9-0.9,0.9l-0.8,0L134.6,52.6L134.6,52.6z"/>
	<path class="st1" d="M162.3,49.6c-0.6,0-0.9,0.3-0.9,0.9l0,0.8l0.8,0c0.6,0,0.9-0.3,0.9-0.9l0-0.8L162.3,49.6L162.3,49.6z"/>
	<path class="st0" d="M111.6,57.2c0,0.6,0.1,1,0.4,1.4c0.3,0.3,0.6,0.5,1.1,0.5c0.5,0,0.9-0.2,1.4-0.5l0,0.4   c-0.4,0.3-0.9,0.5-1.5,0.5c-0.6,0-1-0.2-1.3-0.6c-0.3-0.4-0.5-1-0.5-1.7c0-0.6,0.2-1.1,0.5-1.6c0.4-0.4,0.8-0.6,1.4-0.6   c0.5,0,0.9,0.2,1.2,0.6c0.3,0.4,0.4,0.9,0.4,1.5l0,0.2L111.6,57.2L111.6,57.2z M89.9,58.6L89.9,58.6l0,2.7l-0.4,0l0-6.2l0.4,0   l0,0.9l0,0c0.2-0.3,0.4-0.6,0.7-0.7c0.3-0.2,0.6-0.3,0.9-0.3c0.5,0,1,0.2,1.3,0.6c0.3,0.4,0.5,0.9,0.5,1.5c0,0.7-0.2,1.3-0.5,1.7   c-0.3,0.4-0.8,0.7-1.4,0.7C90.7,59.5,90.2,59.2,89.9,58.6L89.9,58.6z M89.9,57l0,0.5c0,0.4,0.1,0.8,0.4,1.1   c0.3,0.3,0.6,0.5,1.1,0.5c0.4,0,0.8-0.2,1.1-0.6c0.3-0.4,0.4-0.9,0.4-1.5c0-0.5-0.1-1-0.4-1.3c-0.3-0.3-0.6-0.5-1-0.5   c-0.5,0-0.9,0.2-1.2,0.5C90.1,56.2,89.9,56.5,89.9,57L89.9,57z M96,59.4c-0.6,0-1.1-0.2-1.5-0.6c-0.4-0.4-0.5-0.9-0.5-1.6   c0-0.7,0.2-1.3,0.6-1.7c0.4-0.4,0.9-0.6,1.5-0.6c0.6,0,1.1,0.2,1.4,0.6c0.4,0.4,0.5,0.9,0.5,1.7c0,0.7-0.2,1.2-0.5,1.6   C97.2,59.2,96.7,59.4,96,59.4L96,59.4z M96.1,55.3c-0.5,0-0.9,0.2-1.2,0.5c-0.3,0.3-0.4,0.8-0.4,1.4c0,0.6,0.1,1,0.4,1.3   c0.3,0.3,0.7,0.5,1.2,0.5c0.5,0,0.9-0.2,1.2-0.5c0.3-0.3,0.4-0.8,0.4-1.4c0-0.6-0.1-1.1-0.4-1.4C97,55.5,96.6,55.3,96.1,55.3   L96.1,55.3z M102.7,59.3l-0.4,0l-0.9-3.2c0-0.1,0-0.2-0.1-0.4l0,0c0,0.1,0,0.2-0.1,0.4l-1,3.2l-0.4,0l-1.3-4.3l0.4,0l1,3.4   c0,0.1,0,0.2,0.1,0.4l0,0c0-0.1,0-0.2,0.1-0.4l1.1-3.4l0.3,0l1,3.4c0,0.1,0,0.2,0.1,0.4l0,0c0-0.1,0-0.2,0.1-0.4l1-3.4l0.4,0   L102.7,59.3L102.7,59.3z M105,57.2c0,0.6,0.1,1,0.4,1.4c0.3,0.3,0.6,0.5,1.1,0.5c0.5,0,0.9-0.2,1.4-0.5l0,0.4   c-0.4,0.3-0.9,0.5-1.5,0.5c-0.6,0-1-0.2-1.3-0.6c-0.3-0.4-0.5-1-0.5-1.7c0-0.6,0.2-1.1,0.5-1.6c0.4-0.4,0.8-0.6,1.4-0.6   c0.5,0,0.9,0.2,1.2,0.6c0.3,0.4,0.4,0.9,0.4,1.5l0,0.2L105,57.2L105,57.2z M107.7,56.9c0-0.5-0.1-0.9-0.4-1.1   c-0.2-0.3-0.5-0.4-0.9-0.4c-0.4,0-0.7,0.1-1,0.4c-0.3,0.3-0.4,0.7-0.5,1.2L107.7,56.9L107.7,56.9z M111.2,55.4   c-0.1-0.1-0.3-0.1-0.5-0.1c-0.3,0-0.6,0.2-0.8,0.5c-0.2,0.3-0.3,0.8-0.3,1.5l0,2l-0.4,0l0-4.3l0.4,0l0,0.9l0,0   c0.1-0.3,0.3-0.6,0.5-0.8c0.2-0.2,0.5-0.3,0.7-0.3c0.2,0,0.3,0,0.4,0.1L111.2,55.4L111.2,55.4z M118.4,59.3l0-0.8l0,0   c-0.1,0.3-0.3,0.5-0.6,0.6c-0.3,0.2-0.6,0.2-0.9,0.2c-0.5,0-1-0.2-1.3-0.6c-0.3-0.4-0.5-0.9-0.5-1.6c0-0.7,0.2-1.2,0.5-1.7   c0.4-0.4,0.8-0.6,1.4-0.6c0.6,0,1.1,0.3,1.4,0.8l0,0l0-2.7l0.4,0l0,6.3L118.4,59.3L118.4,59.3z M118.4,56.7c0-0.4-0.1-0.7-0.4-1   c-0.3-0.3-0.6-0.4-1-0.4c-0.4,0-0.8,0.2-1.1,0.5c-0.3,0.3-0.4,0.8-0.4,1.4c0,0.6,0.1,1,0.4,1.4c0.3,0.3,0.6,0.5,1,0.5   c0.5,0,0.9-0.2,1.1-0.5c0.3-0.3,0.4-0.7,0.4-1.1L118.4,56.7L118.4,56.7z M122.9,58.5L122.9,58.5l0,0.8l-0.4,0l0-6.3l0.4,0l0,2.9   l0,0c0.2-0.3,0.4-0.6,0.7-0.7c0.3-0.2,0.6-0.3,0.9-0.3c0.5,0,1,0.2,1.3,0.6c0.3,0.4,0.5,0.9,0.5,1.5c0,0.7-0.2,1.3-0.5,1.7   c-0.4,0.4-0.8,0.7-1.4,0.7C123.7,59.4,123.2,59.1,122.9,58.5L122.9,58.5z M122.9,57l0,0.5c0,0.4,0.1,0.8,0.4,1.1   c0.3,0.3,0.6,0.5,1.1,0.5c0.4,0,0.8-0.2,1.1-0.6c0.3-0.4,0.4-0.9,0.4-1.5c0-0.5-0.1-1-0.4-1.3c-0.3-0.3-0.6-0.5-1-0.5   c-0.5,0-0.9,0.2-1.2,0.5C123,56.1,122.9,56.5,122.9,57L122.9,57z M128.4,60.2c-0.2,0.4-0.3,0.7-0.5,0.9c-0.2,0.2-0.4,0.3-0.7,0.3   c-0.1,0-0.2,0-0.3-0.1l0-0.4c0.1,0,0.2,0.1,0.3,0.1c0.3,0,0.6-0.2,0.8-0.7l0.4-0.9l-1.6-4.2l0.4,0l1.3,3.5c0,0.1,0,0.1,0.1,0.2   c0,0.1,0,0.1,0,0.1l0,0l0.1-0.3L130,55l0.4,0L128.4,60.2L128.4,60.2z M114.3,56.8c0-0.5-0.1-0.9-0.4-1.1c-0.2-0.3-0.5-0.4-0.9-0.4   c-0.4,0-0.7,0.1-1,0.4c-0.3,0.3-0.4,0.7-0.5,1.2L114.3,56.8L114.3,56.8z"/>
</g>
</svg>