<?xml version="1.0" encoding="UTF-8" standalone="no"?>
<svg
   xmlns:dc="http://purl.org/dc/elements/1.1/"
   xmlns:cc="http://creativecommons.org/ns#"
   xmlns:rdf="http://www.w3.org/1999/02/22-rdf-syntax-ns#"
   xmlns:svg="http://www.w3.org/2000/svg"
   xmlns="http://www.w3.org/2000/svg"
   xmlns:sodipodi="http://sodipodi.sourceforge.net/DTD/sodipodi-0.dtd"
   xmlns:inkscape="http://www.inkscape.org/namespaces/inkscape"
   viewBox="0 0 191.2 191.22"
   version="1.1"
   id="svg1060"
   sodipodi:docname="quarkus-logo.svg"
   width="191.2"
   height="191.22"
   inkscape:version="0.92.3 (2405546, 2018-03-11)">
  <metadata
     id="metadata1066">
    <rdf:RDF>
      <cc:Work
         rdf:about="">
        <dc:format>image/svg+xml</dc:format>
        <dc:type
           rdf:resource="http://purl.org/dc/dcmitype/StillImage" />
        <dc:title></dc:title>
      </cc:Work>
    </rdf:RDF>
  </metadata>
  <defs
     id="defs1064" />
  <sodipodi:namedview
     pagecolor="#ffffff"
     bordercolor="#666666"
     borderopacity="1"
     objecttolerance="10"
     gridtolerance="10"
     guidetolerance="10"
     inkscape:pageopacity="0"
     inkscape:pageshadow="2"
     inkscape:window-width="1853"
     inkscape:window-height="1025"
     id="namedview1062"
     showgrid="false"
     fit-margin-top="0"
     fit-margin-left="0"
     fit-margin-right="0"
     fit-margin-bottom="0"
     inkscape:zoom="0.2671875"
     inkscape:cx="401.30678"
     inkscape:cy="94.72"
     inkscape:window-x="67"
     inkscape:window-y="27"
     inkscape:window-maximized="1"
     inkscape:current-layer="svg1060" />
  <path
     d="m 125.05,33.6 -29.44,16.99 29.44,17 z"
     id="path1040"
     inkscape:connector-curvature="0"
     style="fill:#4695eb" />
  <path
     d="m 66.17,33.6 v 33.99 l 29.44,-17 z"
     id="path1042"
     inkscape:connector-curvature="0"
     style="fill:#ff004a" />
  <path
     d="m 125.05,67.59 -29.44,-17 -29.44,17 29.44,17 z"
     id="path1044"
     inkscape:connector-curvature="0"
     style="fill:#ffffff" />
  <path
     d="m 35.13,87.36 29.44,17 V 70.37 Z"
     id="path1046"
     inkscape:connector-curvature="0"
     style="fill:#4695eb" />
  <path
     d="m 64.57,138.35 29.44,-16.99 -29.44,-17 z"
     id="path1048"
     inkscape:connector-curvature="0"
     style="fill:#ff004a" />
  <path
     d="m 64.57,70.37 v 33.99 l 29.44,17 v -34 z"
     id="path1050"
     inkscape:connector-curvature="0"
     style="fill:#ffffff" />
  <path
     d="m 126.65,138.35 v -33.99 l -29.44,17 z"
     id="path1052"
     inkscape:connector-curvature="0"
     style="fill:#4695eb" />
  <path
     d="M 156.09,87.36 126.65,70.37 v 33.99 z"
     id="path1054"
     inkscape:connector-curvature="0"
     style="fill:#ff004a" />
  <path
     d="m 97.21,121.36 29.44,-17 V 70.37 L 97.21,87.36 Z"
     id="path1056"
     inkscape:connector-curvature="0"
     style="fill:#ffffff" />
  <path
     d="M 159.5,0 H 31.72 A 31.81,31.81 0 0 0 0,31.72 V 159.5 a 31.81,31.81 0 0 0 31.72,31.72 h 87.51 L 95.61,133.85 78.48,170.07 H 31.72 A 10.71,10.71 0 0 1 21.15,159.5 V 31.72 A 10.71,10.71 0 0 1 31.72,21.15 H 159.5 a 10.71,10.71 0 0 1 10.57,10.57 V 159.5 a 10.71,10.71 0 0 1 -10.57,10.57 h -27.73 l 8.71,21.15 h 19 A 31.81,31.81 0 0 0 191.2,159.5 V 31.72 A 31.81,31.81 0 0 0 159.5,0 Z"
     id="path1058"
     inkscape:connector-curvature="0"
     style="fill:#4695eb" />
</svg>
